<?xml version="1.0" encoding="UTF-8" standalone="no"?>
<svg
   xmlns:dc="http://purl.org/dc/elements/1.1/"
   xmlns:cc="http://creativecommons.org/ns#"
   xmlns:rdf="http://www.w3.org/1999/02/22-rdf-syntax-ns#"
   xmlns:svg="http://www.w3.org/2000/svg"
   xmlns="http://www.w3.org/2000/svg"
   viewBox="0 0 2666.6667 2666.6667"
   height="2666.6667"
   width="2666.6667"
   xml:space="preserve"
   id="svg2"
   version="1.1"><metadata
     id="metadata8"><rdf:RDF><cc:Work
         rdf:about=""><dc:format>image/svg+xml</dc:format><dc:type
           rdf:resource="http://purl.org/dc/dcmitype/StillImage" /></cc:Work></rdf:RDF></metadata><defs
     id="defs6" /><g
     transform="matrix(1.3333333,0,0,-1.3333333,0,2666.6667)"
     id="g10"><g
       transform="scale(0.1)"
       id="g12"><g
         transform="scale(1.22699)"
         id="g14"><path
           id="path16"
           style="fill:#ffffff;fill-opacity:1;fill-rule:nonzero;stroke:none"
           d="M 0,16300 V 0 H 16300 V 16300 H 0" /></g><path
         id="path18"
         style="fill:#2c2829;fill-opacity:1;fill-rule:nonzero;stroke:none"
         d="m 11048.9,11703.2 c 138.4,-59.5 276.1,-120.3 410.4,-189.2 112.6,-57.8 222.3,-112.3 328.4,-163.3 597,740.6 172.6,1849.7 -827.9,1892.6 768.1,-229.6 900.3,-1242.1 89.1,-1540.1" /><path
         id="path20"
         style="fill:#2c2829;fill-opacity:1;fill-rule:nonzero;stroke:none"
         d="m 9956.43,11350.7 c 355.47,0 739.07,-230 739.07,-230 -457.4,94.4 -359.9,-124.2 -521.8,-124.3 -109.2,-0.1 -219.95,116.8 -327.98,177.1 -95.3,53.3 -195.12,50.8 -195.12,50.8 0,0 84.5,126.4 305.83,126.4 z m 3184.27,-911.5 c 26.7,-78.7 0,-179.9 0,-179.9 -36,289.1 -254.7,199.3 -254.7,199.3 27.2,174.9 197.9,147.3 254.7,-19.4 z m -833.9,4785.3 c 1547.5,-911.2 2585.9,-2594.5 2585.9,-4520.2 0,-1520.6 -647.4,-2889.8 -1681.5,-3847.3 -957.9,85.6 -1378.2,1085.7 -2323.5,1243.5 141.2,431.7 609,564.6 609,564.6 -1372.8,0 -1688.36,-1444.8 -1688.36,-1444.8 -26.55,309.8 92.24,1171.5 869.06,1666.2 681,433.7 1668.6,434.8 1954,94.1 600.7,352.3 951.4,1410 500.5,1825 -64,58.9 -148.7,41.8 -227.3,4.8 -323,-152.5 -901.4,98 -1769.1,543.3 -252,129.3 -516,230.2 -774.1,346.7 -533.8,240.8 -1145.05,306.3 -1717.74,183.8 0,0 -23.18,52.2 -97.4,57.9 -203.17,15.5 -646.93,14.9 -963.16,177.1 -1034.28,530.4 -531.41,1657.4 360.91,1589.2 -1463.75,491.5 -2557.97,-1874.6 126.88,-2773.7 0,0 -235.58,-97.8 -521,-318.4 -261.24,-201.8 -554.58,-529.2 -948.16,-504.4 333.72,-306.5 732.27,-378.5 1197.25,-284.4 0,0 -1519.33,-1381.5 -1184.11,-3397.4 -1030.16,733 -1783.99,1829.1 -2074.74,3101.7 355.89,-2684.7 2653.92,-4756.3 5435.9,-4756.3 3028.67,0 5483.87,2455.2 5483.87,5483.8 0,2195.2 -1289.9,4089.1 -3153.1,4965.2" /></g></g></svg>